<?xml version="1.0" standalone="no"?>
<!DOCTYPE svg PUBLIC "-//W3C//DTD SVG 1.1//EN" "http://www.w3.org/Graphics/SVG/1.1/DTD/svg11.dtd" >
<svg>
<metadata>
Created by FontForge 20090914 at Fri Feb 24 11:46:20 2012
 By root
Copyright (c) 2006 by Juan Pablo De Gregorio. All rights reserved.
</metadata>
<defs>
<font id="Romeral" horiz-adv-x="371" >
  <font-face 
    font-family="Romeral"
    font-weight="400"
    font-stretch="normal"
    units-per-em="1000"
    panose-1="2 0 0 0 0 0 0 0 0 0"
    ascent="800"
    descent="-200"
    x-height="530"
    cap-height="640"
    bbox="-177 -256 1163 913.126"
    underline-thickness="50"
    underline-position="-50"
    unicode-range="U+0020-U+FB02"
  />
<missing-glyph horiz-adv-x="250" 
 />
    <glyph glyph-name=".notdef" horiz-adv-x="250" 
 />
    <glyph glyph-name="d" unicode="d" horiz-adv-x="673" 
d="M599 764v-563c0 -40 26 -42 54 -36v-161s-41 -21 -115 -21c-69 0 -108 28 -129 64c-54 -49 -128 -64 -171 -64c-112 0 -218 80 -218 281s107 281 219 281c51 0 103 -17 147 -46v100h-54v165h267zM233 264c0 -153 92 -149 153 -120v241c-47 21 -153 48 -153 -121z" />
    <glyph glyph-name="f" unicode="f" horiz-adv-x="364" 
d="M364 530v-165h-72v-200h72v-165h-339v165h54v200h-54v165h53v49c0 129 101 204 256 204c148 0 221 -71 221 -71v-108h-162s-10 36 -47 36s-54 -23 -54 -60c0 -17 0 -34 -1 -50h73z" />
    <glyph glyph-name="g" unicode="g" horiz-adv-x="663" 
d="M608 137v-160c0 -142 -110 -230 -305 -230c-170 0 -290 67 -290 67l46 151c134 -64 335 -54 335 55v11c-39 -31 -90 -48 -142 -48c-137 0 -227 82 -227 283c0 205 146 279 293 279c148 0 289 -56 289 -56v-352h1zM394 145v242s-30 14 -68 14c-44 0 -88 -27 -88 -135
c0 -173 110 -141 156 -121z" />
    <glyph glyph-name="h" unicode="h" horiz-adv-x="721" 
d="M426 165v150c0 30 -18 48 -47 48c-32 0 -67 -20 -85 -32v-166h54v-165h-323v165h54v434h-54v165h269v-292c40 35 102 73 190 73c113 0 156 -101 156 -180v-200h56v-165h-324v165h54z" />
    <glyph glyph-name="i" unicode="i" 
d="M25 0v165h54v200h-54v165h267v-365h54v-165h-321zM61 683c0 69 55 126 123 126c70 0 126 -57 126 -126c0 -71 -56 -125 -126 -125c-68 0 -123 54 -123 125z" />
    <glyph glyph-name="k" unicode="k" horiz-adv-x="622" 
d="M787 -105l27 -96s-48 -45 -151 -45c-383 0 -143 469 -343 469c-9 0 -28 -3 -28 -3v-55h54v-165h-321v165h54v434h-54v165h267v-306c34 45 92 87 189 87c85 0 132 -43 132 -128c0 -68 -49 -141 -157 -158c307 -20 64 -428 331 -364zM382 424c-44 0 -90 -53 -90 -108v-7
c92 -17 135 33 135 72c0 29 -22 43 -45 43z" />
    <glyph glyph-name="j" unicode="j" horiz-adv-x="339" 
d="M25 365v165h268v-557c0 -207 -217 -287 -459 -174l38 139c121 -45 207 -25 207 79v348h-54zM61 683c0 69 55 126 123 126c70 0 126 -57 126 -126c0 -71 -56 -125 -126 -125c-68 0 -123 54 -123 125z" />
    <glyph glyph-name="l" unicode="l" 
d="M25 0v165h54v434h-54v165h267v-599h54v-165h-321z" />
    <glyph glyph-name="m" unicode="m" horiz-adv-x="1068" 
d="M775 165v150c0 30 -20 48 -47 48c-34 0 -71 -22 -87 -33v-165h54v-165h-324v165h56v150c0 30 -20 48 -47 48c-35 0 -72 -23 -88 -34v-164h57v-165h-324v165h55v200h-55v165h267v-61c39 36 103 76 193 76c72 0 116 -42 138 -93c37 40 106 93 210 93
c113 0 156 -101 156 -180v-200h54v-165h-324v165h56z" />
    <glyph glyph-name="o" unicode="o" horiz-adv-x="638" 
d="M231 264c0 -93 38 -134 86 -134s87 41 87 134c0 95 -36 136 -87 136c-48 0 -86 -41 -86 -136zM20 264c0 188 134 280 299 280s299 -88 299 -280c0 -186 -134 -282 -299 -282s-299 97 -299 282z" />
    <glyph glyph-name="q" unicode="q" horiz-adv-x="676" 
d="M332 -234v162h57v104c-139 -94 -369 -60 -369 234c0 205 145 279 292 279c149 0 290 -56 290 -56v-558h54v-165h-324zM233 266c0 -173 110 -141 156 -120v238c-46 21 -156 53 -156 -118z" />
    <glyph glyph-name="p" unicode="p" horiz-adv-x="686" 
d="M30 -234v162h55v437h-55v165h267v-34c44 31 98 49 151 49c112 0 218 -80 218 -281s-107 -281 -219 -281c-53 0 -106 17 -150 48v-103h57v-162h-324zM453 264c0 171 -111 139 -156 118v-238c45 -21 156 -53 156 120z" />
    <glyph glyph-name="s" unicode="s" horiz-adv-x="590" 
d="M550 156c0 -108 -105 -174 -249 -174c-153 0 -260 48 -260 48v132h176s9 -54 72 -54c34 0 57 21 57 44c0 99 -306 -5 -306 222c0 111 118 171 235 171c108 0 260 -32 260 -32v-145h-176s-3 54 -63 54c-34 0 -57 -21 -57 -39c0 -95 311 -5 311 -227z" />
    <glyph glyph-name="t" unicode="t" horiz-adv-x="379" 
d="M237 365v-173c0 -67 84 -58 117 -43v-140s-64 -27 -135 -27c-127 0 -190 80 -190 201v182h-29v165h24c94 0 110 81 110 81h103v-81h117v-165h-117z" />
    <glyph glyph-name="u" unicode="u" horiz-adv-x="705" 
d="M680 165v-161s-41 -21 -115 -21c-79 0 -119 36 -137 79c-28 -33 -84 -79 -173 -79c-112 0 -181 73 -181 192v190h-54v165h268v-308c0 -36 26 -55 56 -55c27 0 50 13 69 27v171h-54v165h267v-329c0 -40 26 -42 54 -36z" />
    <glyph glyph-name="v" unicode="v" horiz-adv-x="566" 
d="M281 253l44 112h-33v165h271v-165h-24l-151 -385h-214l-151 385h-23v165h268v-165h-31z" />
    <glyph glyph-name="w" unicode="w" horiz-adv-x="890" 
d="M604 250l45 115h-33v165h271v-165h-24l-151 -385h-214l-55 171l-55 -171h-214l-151 385h-23v165h268v-165h-31l45 -114l65 199h192z" />
    <glyph glyph-name="y" unicode="y" horiz-adv-x="567" 
d="M284 242l50 123h-36v165h269v-165h-24l-105 -260l-48 -119c-51 -130 -102 -221 -233 -221c-84 0 -137 17 -137 17l20 146c129 -30 155 14 174 62h-40l-147 375h-26v165h269v-165h-34z" />
    <glyph glyph-name="z" unicode="z" horiz-adv-x="527" 
d="M502 0h-477v123l247 242h-71v-32h-170v197h456v-127l-237 -238h63v21h189v-186z" />
    <glyph glyph-name="_0142" horiz-adv-x="537" 
d="M79 429v166h213v-166h179v-165h-97c110 -38 243 -114 243 -264c0 -161 -109 -256 -270 -256c-165 0 -268 95 -268 254v266h-86v165h86zM292 159v-222c0 -34 18 -61 55 -61c34 0 56 44 56 106c0 74 -62 138 -111 177z" />
    <glyph glyph-name="b" unicode="b" horiz-adv-x="679" 
d="M659 264c0 -205 -146 -279 -293 -282c-148 0 -289 59 -289 59v558h-57v165h270v-266c139 94 369 60 369 -234zM446 264c0 169 -108 142 -156 121v-241c48 -20 156 -48 156 120z" />
    <glyph glyph-name="L" unicode="L" horiz-adv-x="586" 
d="M25 475v165h321v-165h-54v-310h104v88h165v-253h-536v165h54v310h-54z" />
    <glyph glyph-name="P" unicode="P" horiz-adv-x="652" 
d="M25 0v165h54v310h-54v165h369c118 0 233 -66 233 -215c0 -143 -108 -203 -213 -203h-122v-57h55v-165h-322zM364 475h-72v-99h72c28 0 50 22 50 49c0 28 -22 50 -50 50z" />
    <glyph glyph-name="fi" unicode="&#xfb01;" horiz-adv-x="734" 
d="M419 663c-51 13 -127 10 -127 -56v-77h363v-365h54v-165h-321v165h54v200h-150v-200h72v-165h-339v165h54v200h-54v165h53v57c0 129 78 225 295 225c102 0 269 -23 269 -149c0 -63 -47 -114 -110 -114c-70 0 -118 48 -113 114z" />
    <glyph glyph-name="fl" unicode="&#xfb02;" horiz-adv-x="734" 
d="M25 0v165h54v200h-54v165h53v49c0 129 101 204 256 204c148 0 321 -65 321 -65v-553h54v-165h-321v165h54v459c-44 21 -150 47 -150 -44c0 -17 0 -34 -1 -50h73v-165h-72v-200h72v-165h-339z" />
    <glyph glyph-name="_0157" horiz-adv-x="521" 
d="M79 429v102h213v-102h179v-165h-97c110 -38 243 -114 243 -264c0 -161 -109 -256 -270 -256c-165 0 -268 95 -268 254v266h-86v165h86zM292 159v-222c0 -34 18 -61 55 -61c34 0 56 44 56 106c0 74 -62 138 -111 177z" />
    <glyph glyph-name="x" unicode="x" horiz-adv-x="614" 
d="M69 365h-44v165h271v-165h-53l64 -42l64 42h-53v165h271v-165h-44l-151 -100l152 -100h43v-165h-268v165h51l-65 43l-65 -43h51v-165h-268v165h43l152 100z" />
    <glyph glyph-name="A" unicode="A" horiz-adv-x="657" 
d="M435 650l190 -486h23v-165h-268v165h31l-16 41h-134l-16 -41h33v-165h-271v165h24l190 486h214zM369 272l-41 104l-41 -104h82z" />
    <glyph glyph-name="H" unicode="H" horiz-adv-x="730" 
d="M384 475v165h321v-165h-54v-310h53v-165h-320v165h54v120h-146v-120h53v-165h-320v165h54v310h-54v165h321v-165h-54v-123h146v123h-54z" />
    <glyph glyph-name="I" unicode="I" 
d="M25 0v165h54v310h-54v165h321v-165h-54v-310h53v-165h-320z" />
    <glyph glyph-name="T" unicode="T" horiz-adv-x="649" 
d="M165 406h-165v234h649v-234h-165v69h-53v-310h54v-165h-321v165h54v310h-53v-69z" />
    <glyph glyph-name="F" unicode="F" horiz-adv-x="614" 
d="M426 250h-134v-85h54v-165h-321v165h54v310h-53v165h563v-234h-165v69h-132v-100h134v-125z" />
    <glyph glyph-name="E" unicode="E" horiz-adv-x="614" 
d="M424 271h-132v-106h132v88h165v-253h-564v165h54v310h-53v165h563v-234h-165v69h-132v-87h132v-117z" />
    <glyph glyph-name="D" unicode="D" horiz-adv-x="656" 
d="M25 0v165h54v310h-53v165h288c187 0 317 -133 317 -320s-130 -320 -317 -320h-289zM418 320c0 105 -64 149 -126 154v-309c57 6 126 50 126 155z" />
    <glyph glyph-name="B" unicode="B" horiz-adv-x="632" 
d="M25 0v165h54v310h-53v165h311c88 0 270 -19 270 -166c0 -127 -152 -139 -168 -139c21 -3 168 -26 168 -154c0 -164 -180 -181 -266 -181h-316zM340 271h-48v-106h48c36 0 55 21 55 54c0 29 -19 52 -55 52zM340 475h-48v-87h48c36 0 55 15 55 44c0 22 -19 43 -55 43z" />
    <glyph glyph-name="J" unicode="J" horiz-adv-x="366" 
d="M25 475v165h321v-165h-54v-497c0 -140 -103 -213 -238 -213c-103 0 -161 25 -161 25l34 158c62 -23 152 -14 152 68v459h-54z" />
    <glyph glyph-name="V" unicode="V" horiz-adv-x="632" 
d="M243 475l72 -196l72 196h-33v165h271v-165h-24l-179 -486h-214l-179 486h-23v165h268v-165h-31z" />
    <glyph glyph-name="W" unicode="W" horiz-adv-x="947" 
d="M566 364l53 -146l88 257h-33v165h271v-165h-24l-172 -486h-216l-60 207l-60 -207h-214l-170 486h-23v165h268v-165h-31l85 -255l53 144h-33v165h251v-165h-33z" />
    <glyph glyph-name="X" unicode="X" horiz-adv-x="614" 
d="M49 475h-24v165h271v-165h-53l64 -62l64 62h-53v165h271v-165h-24l-161 -155l162 -155h23v-165h-268v165h51l-65 62l-65 -62h51v-165h-268v165h23l162 155z" />
    <glyph glyph-name="Y" unicode="Y" horiz-adv-x="615" 
d="M146 0v165h54v32l-157 278h-23v165h268v-165h-31l50 -89l50 89h-33v165h271v-165h-24l-157 -278h-1v-32h53v-165h-320z" />
    <glyph glyph-name="U" unicode="U" horiz-adv-x="726" 
d="M384 475v165h321v-165h-54v-255c0 -144 -106 -220 -286 -220s-286 76 -286 220v255h-54v165h321v-165h-54v-249c0 -46 25 -84 73 -84c50 0 73 38 73 84v249h-54z" />
    <glyph glyph-name="Z" unicode="Z" horiz-adv-x="527" 
d="M204 474v-54h-170v219h467v-109l-241 -365h53v39h189v-204h-477v107l251 367h-72z" />
    <glyph glyph-name="C" unicode="C" horiz-adv-x="607" 
d="M26 329c0 233 145 328 310 328c160 0 243 -71 243 -71v-154h-166s-11 60 -76 60c-55 0 -94 -53 -94 -160c0 -138 71 -182 148 -182c84 0 167 35 167 35l30 -153c-179 -78 -562 -113 -562 297z" />
    <glyph glyph-name="O" unicode="O" horiz-adv-x="662" 
d="M11 316c0 243 169 339 320 339s320 -96 320 -339s-169 -333 -320 -333s-320 90 -320 333zM422 316c0 134 -43 190 -91 190s-91 -56 -91 -190s43 -184 91 -184s91 50 91 184z" />
    <glyph glyph-name="M" unicode="M" horiz-adv-x="1039" 
d="M25 475v165h421v-165h-33l106 -289l107 289h-33v165h421v-165h-54v-310h53v-165h-320v165h54v245l-155 -421h-145l-155 421v-245h53v-165h-320v165h54v310h-54z" />
    <glyph glyph-name="S" unicode="S" horiz-adv-x="559" 
d="M534 177c0 -108 -68 -195 -249 -195c-153 0 -260 48 -260 48v132h176s9 -54 65 -54c41 0 59 25 59 54c0 98 -296 74 -296 301c0 111 102 192 258 192c129 0 232 -32 232 -32v-145h-171s-3 54 -63 54c-36 0 -52 -24 -52 -54c0 -101 301 -79 301 -301z" />
    <glyph glyph-name="R" unicode="R" horiz-adv-x="652" 
d="M349 165v-165h-324v165h54v310h-53v165h311c88 0 270 -19 270 -166c0 -127 -184 -139 -168 -139c243 7 104 -190 222 -170v-165c-240 -33 -282 119 -282 220c0 25 -19 52 -55 52l-32 -1v-106h57zM340 475h-48v-87h48c36 0 55 15 55 44c0 22 -19 43 -55 43z" />
    <glyph glyph-name="N" unicode="N" horiz-adv-x="789" 
d="M25 475v165h259l213 -363v198h-54v165h321v-165h-54v-310h53v-165h-262l-209 357v-192h53v-165h-320v165h54v310h-54z" />
    <glyph glyph-name="G" unicode="G" horiz-adv-x="607" 
d="M322 208v128h264v-306s-105 -47 -230 -47c-171 0 -329 80 -329 347c0 233 143 327 304 327c169 0 248 -73 248 -73v-152h-166s-11 60 -76 60c-56 0 -94 -49 -94 -162c0 -133 50 -203 172 -180v58h-93z" />
    <glyph glyph-name="K" unicode="K" horiz-adv-x="668" 
d="M642 0h-175l-175 240v-75h34v-165h-301v165h54v310h-54v165h302v-165h-35v-74l174 239h177v-165h-70l-112 -155l112 -155h69v-165z" />
    <glyph glyph-name="bracketleft" unicode="[" horiz-adv-x="312" 
d="M17 -196v1028h283v-165h-70v-698h69v-165h-282z" />
    <glyph glyph-name="bracketright" unicode="]" horiz-adv-x="312" 
d="M296 832v-1028h-283v165h70v698h-69v165h282z" />
    <glyph glyph-name="Q" unicode="Q" horiz-adv-x="662" 
d="M11 316c0 230 152 339 320 339c139 0 320 -89 320 -339c0 -108 -33 -225 -156 -294c39 -63 88 -117 180 -117c89 0 145 55 145 55l60 -91s-69 -122 -229 -122c-215 0 -263 144 -337 236c-179 12 -303 127 -303 333zM422 326c0 81 -25 180 -91 180
c-68 0 -91 -101 -91 -180c0 -67 9 -108 9 -108c63 14 117 -8 151 -47c16 44 22 96 22 155z" />
    <glyph glyph-name="dotlessi" unicode="&#x131;" 
d="M25 0v165h54v200h-54v165h267v-365h54v-165h-321z" />
    <glyph glyph-name="acute" unicode="&#xb4;" horiz-adv-x="321" 
d="M13 679l194 154l102 -151l-134 -67c-87 -44 -158 3 -162 64z" />
    <glyph glyph-name="igrave" unicode="&#xec;" 
d="M25 0v165h54v200h-54v165h267v-365h54v-165h-321zM86 833l194 -154c-4 -61 -75 -108 -162 -64l-134 67z" />
    <glyph glyph-name="iacute" unicode="&#xed;" 
d="M25 0v165h54v200h-54v165h267v-365h54v-165h-321zM63 679l194 154l102 -151l-134 -67c-87 -44 -158 3 -162 64z" />
    <glyph glyph-name="icircumflex" unicode="&#xee;" 
d="M25 0v165h54v200h-54v165h267v-365h54v-165h-321zM-10 646l120 164c30 41 102 42 133 0l121 -164c-18 -58 -97 -57 -126 -26l-61 66l-61 -66c-29 -31 -108 -32 -126 26z" />
    <glyph glyph-name="idieresis" unicode="&#xef;" 
d="M25 165v-165h321v165h-54v365h-267v-165h54v-200h-54zM-41 691c0 51 40 92 91 92s92 -41 92 -92s-41 -91 -92 -91s-91 40 -91 91zM209 691c0 51 40 92 91 92s92 -41 92 -92s-41 -91 -92 -91s-91 40 -91 91z" />
    <glyph glyph-name="agrave" unicode="&#xe0;" horiz-adv-x="676" 
d="M255 -17c-122 0 -235 80 -235 266c0 219 148 296 326 296c138 0 256 -56 256 -56v-288c0 -40 26 -42 54 -36v-161s-41 -21 -115 -21c-66 0 -104 25 -126 58c-49 -39 -106 -58 -160 -58zM389 144v243s-28 14 -61 14c-44 0 -95 -27 -95 -135c0 -109 42 -137 88 -137
c23 0 48 7 68 15zM269 833l194 -154c-4 -61 -75 -108 -162 -64l-134 67z" />
    <glyph glyph-name="aacute" unicode="&#xe1;" horiz-adv-x="676" 
d="M255 -17c-122 0 -235 80 -235 266c0 219 148 296 326 296c138 0 256 -56 256 -56v-288c0 -40 26 -42 54 -36v-161s-41 -21 -115 -21c-66 0 -104 25 -126 58c-49 -39 -106 -58 -160 -58zM389 144v243s-28 14 -61 14c-44 0 -95 -27 -95 -135c0 -109 42 -137 88 -137
c23 0 48 7 68 15zM215 679l194 154l102 -151l-134 -67c-87 -44 -158 3 -162 64z" />
    <glyph glyph-name="acircumflex" unicode="&#xe2;" horiz-adv-x="676" 
d="M255 -17c-122 0 -235 80 -235 266c0 219 148 296 326 296c138 0 256 -56 256 -56v-288c0 -40 26 -42 54 -36v-161s-41 -21 -115 -21c-66 0 -104 25 -126 58c-49 -39 -106 -58 -160 -58zM389 144v243s-28 14 -61 14c-44 0 -95 -27 -95 -135c0 -109 42 -137 88 -137
c23 0 48 7 68 15zM142 646l120 164c30 41 102 42 133 0l121 -164c-18 -58 -97 -57 -126 -26l-61 66l-61 -66c-29 -31 -108 -32 -126 26z" />
    <glyph glyph-name="atilde" unicode="&#xe3;" horiz-adv-x="676" 
d="M255 -17c-122 0 -235 80 -235 266c0 219 148 296 326 296c138 0 256 -56 256 -56v-288c0 -40 26 -42 54 -36v-161s-41 -21 -115 -21c-66 0 -104 25 -126 58c-49 -39 -106 -58 -160 -58zM389 144v243s-28 14 -61 14c-44 0 -95 -27 -95 -135c0 -109 42 -137 88 -137
c23 0 48 7 68 15zM224 601c-121 0 -163 89 -163 188h132c0 -27 18 -52 47 -52c65 0 97 61 199 61c121 0 163 -89 163 -188h-132c0 27 -18 52 -47 52c-65 0 -97 -61 -199 -61z" />
    <glyph glyph-name="adieresis" unicode="&#xe4;" horiz-adv-x="676" 
d="M255 -17c54 0 111 19 160 58c22 -33 60 -58 126 -58c74 0 115 21 115 21v161c-28 -6 -54 -4 -54 36v288s-118 56 -256 56c-178 0 -326 -77 -326 -296c0 -186 113 -266 235 -266zM389 387v-243c-20 -8 -45 -15 -68 -15c-46 0 -88 28 -88 137c0 108 51 135 95 135
c33 0 61 -14 61 -14zM143 691c0 51 40 92 91 92s92 -41 92 -92s-41 -91 -92 -91s-91 40 -91 91zM393 691c0 51 40 92 91 92s92 -41 92 -92s-41 -91 -92 -91s-91 40 -91 91z" />
    <glyph glyph-name="aring" unicode="&#xe5;" horiz-adv-x="676" 
d="M255 -17c-122 0 -235 80 -235 266c0 219 148 296 326 296c138 0 256 -56 256 -56v-288c0 -40 26 -42 54 -36v-161s-41 -21 -115 -21c-66 0 -104 25 -126 58c-49 -39 -106 -58 -160 -58zM389 144v243s-28 14 -61 14c-44 0 -95 -27 -95 -135c0 -109 42 -137 88 -137
c23 0 48 7 68 15zM215 679c0 57 47 104 104 104s104 -47 104 -104s-47 -104 -104 -104s-104 47 -104 104zM271 679c0 -26 22 -48 48 -48s48 22 48 48s-22 48 -48 48s-48 -22 -48 -48z" />
    <glyph glyph-name="grave" unicode="`" horiz-adv-x="321" 
d="M115 833l194 -154c-4 -61 -75 -108 -162 -64l-134 67z" />
    <glyph glyph-name="circumflex" unicode="&#x2c6;" horiz-adv-x="321" 
d="M-27 646l120 164c30 41 102 42 133 0l121 -164c-18 -58 -97 -57 -126 -26l-61 66l-61 -66c-29 -31 -108 -32 -126 26z" />
    <glyph glyph-name="ntilde" unicode="&#xf1;" horiz-adv-x="720" 
d="M427 165v150c0 30 -20 48 -47 48c-35 0 -72 -23 -88 -34v-164h57v-165h-324v165h55v200h-55v165h267v-61c39 36 103 76 193 76c113 0 156 -101 156 -180v-200h54v-165h-324v165h56zM222 601c-121 0 -163 89 -163 188h132c0 -27 18 -52 47 -52c65 0 97 61 199 61
c121 0 163 -89 163 -188h-132c0 27 -18 52 -47 52c-65 0 -97 -61 -199 -61z" />
    <glyph glyph-name="tilde" unicode="&#x2dc;" horiz-adv-x="579" 
d="M184 601c-121 0 -163 89 -163 188h132c0 -27 18 -52 47 -52c65 0 97 61 199 61c121 0 163 -89 163 -188h-132c0 27 -18 52 -47 52c-65 0 -97 -61 -199 -61z" />
    <glyph glyph-name="asciitilde" unicode="~" horiz-adv-x="579" 
d="M184 176c-121 0 -163 89 -163 188h132c0 -27 18 -52 47 -52c65 0 97 61 199 61c121 0 163 -89 163 -188h-132c0 27 -18 52 -47 52c-65 0 -97 -61 -199 -61z" />
    <glyph glyph-name="caron" unicode="&#x2c7;" horiz-adv-x="321" 
d="M347 774l-120 -164c-30 -41 -102 -42 -133 0l-121 164c18 58 97 57 126 26l61 -66l61 66c29 31 108 32 126 -26z" />
    <glyph glyph-name="zcaron" unicode="&#x17e;" horiz-adv-x="527" 
d="M502 0h-477v123l247 242h-71v-32h-170v197h456v-127l-237 -238h63v21h189v-186zM457 774l-120 -164c-30 -41 -102 -42 -133 0l-121 164c18 58 97 57 126 26l61 -66l61 66c29 31 108 32 126 -26z" />
    <glyph glyph-name="minus" unicode="&#x2212;" horiz-adv-x="352" 
d="M331 307v-118h-315v118h315z" />
    <glyph glyph-name="endash" unicode="&#x2013;" horiz-adv-x="474" 
d="M460 307v-118h-444v118h444z" />
    <glyph glyph-name="emdash" unicode="&#x2014;" horiz-adv-x="724" 
d="M707 307v-118h-691v118h691z" />
    <glyph glyph-name="underscore" unicode="_" horiz-adv-x="474" 
d="M460 118v-118h-444v118h444z" />
    <glyph glyph-name="hyphen" unicode="-" horiz-adv-x="400" 
d="M383 307v-118h-367v118h367z" />
    <glyph glyph-name="plus" unicode="+" horiz-adv-x="352" 
d="M232 90h-118v99h-98v118h98v98h118v-98h99v-118h-99v-99z" />
    <glyph glyph-name="plusminus" unicode="&#xb1;" horiz-adv-x="352" 
d="M232 184h-118v99h-98v118h98v98h118v-98h99v-118h-99v-99zM331 164v-118h-315v118h315z" />
    <glyph glyph-name="zero" unicode="0" horiz-adv-x="602" 
d="M20 264c0 169 125 281 281 281c155 0 281 -113 281 -281c0 -165 -126 -281 -281 -281c-156 0 -281 116 -281 281zM182 264c0 -66 53 -126 119 -126s119 60 119 126s-53 126 -119 126s-119 -60 -119 -126z" />
    <glyph glyph-name="one" unicode="1" horiz-adv-x="327" 
d="M72 165v153h-52v117c126 -5 137 95 137 95h103v-365h47v-165h-286v165h51z" />
    <glyph glyph-name="two" unicode="2" horiz-adv-x="480" 
d="M36 0v117s249 93 249 229c0 39 -26 62 -62 62c-81 0 -79 -90 -20 -97l-24 -92s-182 -10 -182 151c0 102 85 175 245 175c130 0 217 -74 217 -168c0 -157 -225 -228 -264 -239c22 5 115 25 260 25v-163h-419z" />
    <glyph glyph-name="three" unicode="3" horiz-adv-x="537" 
d="M224 226v68h18c40 0 73 19 73 65c0 38 -31 60 -70 60c-33 0 -62 -20 -66 -54h-151v127s83 53 217 53c157 0 257 -58 257 -155c0 -109 -113 -125 -130 -126c18 -2 140 -16 140 -127c0 -109 -88 -154 -267 -154c-134 0 -225 54 -225 54v126h159c4 -34 42 -53 76 -53
s64 21 64 59c0 40 -32 57 -68 57h-27z" />
    <glyph glyph-name="_0158" horiz-adv-x="500" 
d="M180 319l-87 -68c-51 30 -74 69 -74 119c0 102 85 175 221 175c154 0 241 -74 241 -168c0 -159 -176 -201 -194 -205c8 0 211 0 211 -187c0 -123 -102 -203 -259 -203c-99 0 -236 61 -243 211l101 49c18 -137 212 -132 212 -9c0 112 -157 80 -157 80v111s155 -3 155 103
c0 54 -30 78 -67 78c-35 0 -85 -33 -60 -86z" />
    <glyph glyph-name="period" unicode="." horiz-adv-x="257" 
d="M20 98c0 60 48 110 107 110c61 0 110 -50 110 -110c0 -62 -49 -109 -110 -109c-59 0 -107 47 -107 109z" />
    <glyph glyph-name="comma" unicode="," horiz-adv-x="257" 
d="M20 88c0 67 48 113 110 113c65 0 118 -43 118 -116c0 -183 -213 -237 -213 -237l-28 59s75 22 96 82c-39 7 -83 38 -83 99z" />
    <glyph glyph-name="four" unicode="4" horiz-adv-x="575" 
d="M497 -146h-193v146h-287v165l307 365h173v-365h61v-165h-61v-146zM173 148h131v167z" />
    <glyph glyph-name="five" unicode="5" horiz-adv-x="512" 
d="M498 164c0 -120 -74 -181 -253 -181c-153 0 -254 59 -254 59l42 124s93 -43 171 -43c74 0 102 14 102 47c0 25 -23 42 -93 42h-183v318h441v-165h-247v-44h74c118 0 200 -54 200 -157z" />
    <glyph glyph-name="seven" unicode="7" horiz-adv-x="485" 
d="M318 365h-302v165h441v-165s-232 -210 -244 -516h-214c21 349 319 516 319 516z" />
    <glyph glyph-name="eight" unicode="8" horiz-adv-x="578" 
d="M11 167c0 122 158 151 173 154c-15 3 -158 44 -158 157c0 91 49 179 262 179h1c212 -1 261 -92 261 -179c0 -113 -145 -154 -159 -157c13 -3 174 -31 174 -154c0 -96 -84 -184 -277 -184s-277 88 -277 184zM288 111c54 0 86 34 86 72c0 54 -44 82 -86 92
c-42 -10 -86 -38 -86 -92c0 -38 32 -72 86 -72zM212 458c0 -56 38 -81 76 -92c38 11 76 36 76 92c0 49 -36 72 -76 72h-3c-39 0 -73 -24 -73 -72z" />
    <glyph glyph-name="dieresis" unicode="&#xa8;" horiz-adv-x="471" 
d="M17 691c0 51 40 92 91 92s92 -41 92 -92s-41 -91 -92 -91s-91 40 -91 91zM267 691c0 51 40 92 91 92s92 -41 92 -92s-41 -91 -92 -91s-91 40 -91 91z" />
    <glyph glyph-name="degree" unicode="&#xb0;" horiz-adv-x="334" 
d="M9 601c0 100 82 182 182 182s182 -82 182 -182s-82 -182 -182 -182s-182 82 -182 182zM107 601c0 -45 38 -84 84 -84c45 0 84 39 84 84c0 46 -39 84 -84 84c-46 0 -84 -38 -84 -84z" />
    <glyph glyph-name="egrave" unicode="&#xe8;" horiz-adv-x="640" 
d="M389 150c95 0 193 55 193 55l37 -146s-97 -77 -269 -77c-181 0 -330 81 -330 282c0 206 150 281 298 281c237 0 315 -129 300 -302h-380c17 -72 84 -93 151 -93zM235 308h169c0 76 -27 93 -81 93c-37 0 -80 -13 -88 -93zM278 833l194 -154c-4 -61 -75 -108 -162 -64
l-134 67z" />
    <glyph glyph-name="ograve" unicode="&#xf2;" horiz-adv-x="638" 
d="M231 264c0 -93 38 -134 86 -134s87 41 87 134c0 95 -36 136 -87 136c-48 0 -86 -41 -86 -136zM20 264c0 188 134 280 299 280s299 -88 299 -280c0 -186 -134 -282 -299 -282s-299 97 -299 282zM271 833l194 -154c-4 -61 -75 -108 -162 -64l-134 67z" />
    <glyph glyph-name="ugrave" unicode="&#xf9;" horiz-adv-x="710" 
d="M685 165v-161s-41 -21 -115 -21c-79 0 -119 36 -137 79c-28 -33 -84 -79 -173 -79c-112 0 -181 73 -181 192v190h-54v165h268v-308c0 -36 26 -55 56 -55c27 0 50 13 69 27v171h-54v165h267v-329c0 -40 26 -42 54 -36zM285 833l194 -154c-4 -61 -75 -108 -162 -64l-134 67
z" />
    <glyph glyph-name="yacute" unicode="&#xfd;" horiz-adv-x="567" 
d="M284 242l50 123h-36v165h269v-165h-24l-105 -260l-48 -119c-51 -130 -102 -221 -233 -221c-84 0 -137 17 -137 17l20 146c129 -30 155 14 174 62h-40l-147 375h-26v165h269v-165h-34zM133 679l194 154l102 -151l-134 -67c-87 -44 -158 3 -162 64z" />
    <glyph glyph-name="Agrave" unicode="&#xc0;" horiz-adv-x="657" 
d="M435 650l190 -486h23v-165h-268v165h31l-16 41h-134l-16 -41h33v-165h-271v165h24l190 486h214zM369 272l-41 104l-41 -104h82zM239 902l194 -154c-4 -61 -75 -108 -162 -64l-134 67z" />
    <glyph glyph-name="Egrave" unicode="&#xc8;" horiz-adv-x="594" 
d="M424 271h-132v-106h132v88h165v-253h-564v165h54v310h-53v165h563v-234h-165v69h-132v-87h132v-117zM239 907l194 -154c-4 -61 -75 -108 -162 -64l-134 67z" />
    <glyph glyph-name="Igrave" unicode="&#xcc;" horiz-adv-x="374" 
d="M25 0v165h54v310h-54v165h321v-165h-54v-310h53v-165h-320zM137 904l194 -154c-4 -61 -75 -108 -162 -64l-134 67z" />
    <glyph glyph-name="Ntilde" unicode="&#xd1;" horiz-adv-x="789" 
d="M25 475v165h259l213 -363v198h-54v165h321v-165h-54v-310h53v-165h-262l-209 357v-192h53v-165h-320v165h54v310h-54zM293 660c-121 0 -163 89 -163 188h132c0 -27 18 -52 47 -52c65 0 97 61 199 61c121 0 163 -89 163 -188h-132c0 27 -18 52 -47 52
c-65 0 -97 -61 -199 -61z" />
    <glyph glyph-name="Ograve" unicode="&#xd2;" horiz-adv-x="662" 
d="M11 316c0 243 169 339 320 339s320 -96 320 -339s-169 -333 -320 -333s-320 90 -320 333zM422 316c0 134 -43 190 -91 190s-91 -56 -91 -190s43 -184 91 -184s91 50 91 184zM241 906l194 -154c-4 -61 -75 -108 -162 -64l-134 67z" />
    <glyph glyph-name="Yacute" unicode="&#xdd;" horiz-adv-x="615" 
d="M147 0v165h54v32l-157 278h-23v165h268v-165h-31l50 -89l50 89h-33v165h271v-165h-24l-157 -278h-1v-32h53v-165h-320zM215 753l194 154l102 -151l-134 -67c-87 -44 -158 3 -162 64z" />
    <glyph glyph-name="Aacute" unicode="&#xc1;" horiz-adv-x="657" 
d="M435 650l190 -486h23v-165h-268v165h31l-16 41h-134l-16 -41h33v-165h-271v165h24l190 486h214zM369 272l-41 104l-41 -104h82zM223 757l194 154l102 -151l-134 -67c-87 -44 -158 3 -162 64z" />
    <glyph glyph-name="Acircumflex" unicode="&#xc2;" horiz-adv-x="657" 
d="M435 650l190 -486h23v-165h-268v165h31l-16 41h-134l-16 -41h33v-165h-271v165h24l190 486h214zM369 272l-41 104l-41 -104h82zM142 717l120 164c30 41 102 42 133 0l121 -164c-18 -58 -97 -57 -126 -26l-61 66l-61 -66c-29 -31 -108 -32 -126 26z" />
    <glyph glyph-name="Atilde" unicode="&#xc3;" horiz-adv-x="657" 
d="M435 650l190 -486h23v-165h-268v165h31l-16 41h-134l-16 -41h33v-165h-271v165h24l190 486h214zM369 272l-41 104l-41 -104h82zM222 672c-121 0 -163 89 -163 188h132c0 -27 18 -52 47 -52c65 0 97 61 199 61c121 0 163 -89 163 -188h-132c0 27 -18 52 -47 52
c-65 0 -97 -61 -199 -61z" />
    <glyph glyph-name="Adieresis" unicode="&#xc4;" horiz-adv-x="657" 
d="M435 650l190 -486h23v-165h-268v165h31l-16 41h-134l-16 -41h33v-165h-271v165h24l190 486h214zM369 272l-41 104l-41 -104h82zM112 768c0 51 40 92 91 92s92 -41 92 -92s-41 -91 -92 -91s-91 40 -91 91zM362 768c0 51 40 92 91 92s92 -41 92 -92s-41 -91 -92 -91
s-91 40 -91 91z" />
    <glyph glyph-name="Aring" unicode="&#xc5;" horiz-adv-x="657" 
d="M435 650l190 -486h23v-165h-268v165h31l-16 41h-134l-16 -41h33v-165h-271v165h24l190 486h214zM369 272l-41 104l-41 -104h82zM234 777c0 57 47 104 104 104s104 -47 104 -104s-47 -104 -104 -104s-104 47 -104 104zM290 777c0 -26 22 -48 48 -48s48 22 48 48
s-22 48 -48 48s-48 -22 -48 -48z" />
    <glyph glyph-name="Eacute" unicode="&#xc9;" horiz-adv-x="594" 
d="M424 271h-132v-106h132v88h165v-253h-564v165h54v310h-53v165h563v-234h-165v69h-132v-87h132v-117zM197 753l194 154l102 -151l-134 -67c-87 -44 -158 3 -162 64z" />
    <glyph glyph-name="Ecircumflex" unicode="&#xca;" horiz-adv-x="594" 
d="M424 271h-132v-106h132v88h165v-253h-564v165h54v310h-53v165h563v-234h-165v69h-132v-87h132v-117zM133 715l120 164c30 41 102 42 133 0l121 -164c-18 -58 -97 -57 -126 -26l-61 66l-61 -66c-29 -31 -108 -32 -126 26z" />
    <glyph glyph-name="Edieresis" unicode="&#xcb;" horiz-adv-x="594" 
d="M424 271h-132v-106h132v88h165v-253h-564v165h54v310h-53v165h563v-234h-165v69h-132v-87h132v-117zM100 755c0 51 40 92 91 92s92 -41 92 -92s-41 -91 -92 -91s-91 40 -91 91zM350 755c0 51 40 92 91 92s92 -41 92 -92s-41 -91 -92 -91s-91 40 -91 91z" />
    <glyph glyph-name="Iacute" unicode="&#xcd;" horiz-adv-x="374" 
d="M25 0v165h54v310h-54v165h321v-165h-54v-310h53v-165h-320zM47 750l194 154l102 -151l-134 -67c-87 -44 -158 3 -162 64z" />
    <glyph glyph-name="Icircumflex" unicode="&#xce;" horiz-adv-x="374" 
d="M25 0v165h54v310h-54v165h321v-165h-54v-310h53v-165h-320zM-10 713l120 164c30 41 102 42 133 0l121 -164c-18 -58 -97 -57 -126 -26l-61 66l-61 -66c-29 -31 -108 -32 -126 26z" />
    <glyph glyph-name="Idieresis" unicode="&#xcf;" horiz-adv-x="374" 
d="M25 165v-165h320v165h-53v310h54v165h-321v-165h54v-310h-54zM-31 756c0 51 40 92 91 92s92 -41 92 -92s-41 -91 -92 -91s-91 40 -91 91zM219 756c0 51 40 92 91 92s92 -41 92 -92s-41 -91 -92 -91s-91 40 -91 91z" />
    <glyph glyph-name="Oacute" unicode="&#xd3;" horiz-adv-x="662" 
d="M11 316c0 243 169 339 320 339s320 -96 320 -339s-169 -333 -320 -333s-320 90 -320 333zM422 316c0 134 -43 190 -91 190s-91 -56 -91 -190s43 -184 91 -184s91 50 91 184zM184 750l194 154l102 -151l-134 -67c-87 -44 -158 3 -162 64z" />
    <glyph glyph-name="Ocircumflex" unicode="&#xd4;" horiz-adv-x="662" 
d="M11 316c0 243 169 339 320 339s320 -96 320 -339s-169 -333 -320 -333s-320 90 -320 333zM422 316c0 134 -43 190 -91 190s-91 -56 -91 -190s43 -184 91 -184s91 50 91 184zM144 715l120 164c30 41 102 42 133 0l121 -164c-18 -58 -97 -57 -126 -26l-61 66l-61 -66
c-29 -31 -108 -32 -126 26z" />
    <glyph glyph-name="Otilde" unicode="&#xd5;" horiz-adv-x="662" 
d="M11 316c0 243 169 339 320 339s320 -96 320 -339s-169 -333 -320 -333s-320 90 -320 333zM422 316c0 134 -43 190 -91 190s-91 -56 -91 -190s43 -184 91 -184s91 50 91 184zM236 661c-121 0 -163 89 -163 188h132c0 -27 18 -52 47 -52c65 0 97 61 199 61
c121 0 163 -89 163 -188h-132c0 27 -18 52 -47 52c-65 0 -97 -61 -199 -61z" />
    <glyph glyph-name="Odieresis" unicode="&#xd6;" horiz-adv-x="662" 
d="M11 316c0 243 169 339 320 339s320 -96 320 -339s-169 -333 -320 -333s-320 90 -320 333zM422 316c0 134 -43 190 -91 190s-91 -56 -91 -190s43 -184 91 -184s91 50 91 184zM115 756c0 51 40 92 91 92s92 -41 92 -92s-41 -91 -92 -91s-91 40 -91 91zM365 756
c0 51 40 92 91 92s92 -41 92 -92s-41 -91 -92 -91s-91 40 -91 91z" />
    <glyph glyph-name="Oslash" unicode="&#xd8;" horiz-adv-x="662" 
d="M11 316c0 243 169 339 320 339s320 -96 320 -339s-169 -333 -320 -333s-320 90 -320 333zM422 316c0 134 -43 190 -91 190s-91 -56 -91 -190s43 -184 91 -184s91 50 91 184z" />
    <glyph glyph-name="Uacute" unicode="&#xda;" horiz-adv-x="726" 
d="M384 475v165h321v-165h-54v-255c0 -144 -106 -220 -286 -220s-286 76 -286 220v255h-54v165h321v-165h-54v-249c0 -46 25 -84 73 -84c50 0 73 38 73 84v249h-54zM260 752l194 154l102 -151l-134 -67c-87 -44 -158 3 -162 64z" />
    <glyph glyph-name="Ugrave" unicode="&#xd9;" horiz-adv-x="726" 
d="M384 475v165h321v-165h-54v-255c0 -144 -106 -220 -286 -220s-286 76 -286 220v255h-54v165h321v-165h-54v-249c0 -46 25 -84 73 -84c50 0 73 38 73 84v249h-54zM258 906l194 -154c-4 -61 -75 -108 -162 -64l-134 67z" />
    <glyph glyph-name="Ucircumflex" unicode="&#xdb;" horiz-adv-x="726" 
d="M384 475v165h321v-165h-54v-255c0 -144 -106 -220 -286 -220s-286 76 -286 220v255h-54v165h321v-165h-54v-249c0 -46 25 -84 73 -84c50 0 73 38 73 84v249h-54zM182 718l120 164c30 41 102 42 133 0l121 -164c-18 -58 -97 -57 -126 -26l-61 66l-61 -66
c-29 -31 -108 -32 -126 26z" />
    <glyph glyph-name="Udieresis" unicode="&#xdc;" horiz-adv-x="726" 
d="M384 640v-165h54v-249c0 -46 -23 -84 -73 -84c-48 0 -73 38 -73 84v249h54v165h-321v-165h54v-255c0 -144 106 -220 286 -220s286 76 286 220v255h54v165h-321zM148 758c0 51 40 92 91 92s92 -41 92 -92s-41 -91 -92 -91s-91 40 -91 91zM398 758c0 51 40 92 91 92
s92 -41 92 -92s-41 -91 -92 -91s-91 40 -91 91z" />
    <glyph glyph-name="eacute" unicode="&#xe9;" horiz-adv-x="640" 
d="M389 150c95 0 193 55 193 55l37 -146s-97 -77 -269 -77c-181 0 -330 81 -330 282c0 206 150 281 298 281c237 0 315 -129 300 -302h-380c17 -72 84 -93 151 -93zM235 308h169c0 76 -27 93 -81 93c-37 0 -80 -13 -88 -93zM178 679l194 154l102 -151l-134 -67
c-87 -44 -158 3 -162 64z" />
    <glyph glyph-name="ecircumflex" unicode="&#xea;" horiz-adv-x="640" 
d="M389 150c95 0 193 55 193 55l37 -146s-97 -77 -269 -77c-181 0 -330 81 -330 282c0 206 150 281 298 281c237 0 315 -129 300 -302h-380c17 -72 84 -93 151 -93zM235 308h169c0 76 -27 93 -81 93c-37 0 -80 -13 -88 -93zM138 646l120 164c30 41 102 42 133 0l121 -164
c-18 -58 -97 -57 -126 -26l-61 66l-61 -66c-29 -31 -108 -32 -126 26z" />
    <glyph glyph-name="edieresis" unicode="&#xeb;" horiz-adv-x="640" 
d="M389 150c-67 0 -134 21 -151 93h380c15 173 -63 302 -300 302c-148 0 -298 -75 -298 -281c0 -201 149 -282 330 -282c172 0 269 77 269 77l-37 146s-98 -55 -193 -55zM404 308h-169c8 80 51 93 88 93c54 0 81 -17 81 -93zM110 691c0 51 40 92 91 92s92 -41 92 -92
s-41 -91 -92 -91s-91 40 -91 91zM360 691c0 51 40 92 91 92s92 -41 92 -92s-41 -91 -92 -91s-91 40 -91 91z" />
    <glyph glyph-name="oacute" unicode="&#xf3;" horiz-adv-x="638" 
d="M231 264c0 -93 38 -134 86 -134s87 41 87 134c0 95 -36 136 -87 136c-48 0 -86 -41 -86 -136zM20 264c0 188 134 280 299 280s299 -88 299 -280c0 -186 -134 -282 -299 -282s-299 97 -299 282zM170 679l194 154l102 -151l-134 -67c-87 -44 -158 3 -162 64z" />
    <glyph glyph-name="ocircumflex" unicode="&#xf4;" horiz-adv-x="638" 
d="M231 264c0 -93 38 -134 86 -134s87 41 87 134c0 95 -36 136 -87 136c-48 0 -86 -41 -86 -136zM20 264c0 188 134 280 299 280s299 -88 299 -280c0 -186 -134 -282 -299 -282s-299 97 -299 282zM129 646l120 164c30 41 102 42 133 0l121 -164c-18 -58 -97 -57 -126 -26
l-61 66l-61 -66c-29 -31 -108 -32 -126 26z" />
    <glyph glyph-name="otilde" unicode="&#xf5;" horiz-adv-x="638" 
d="M231 264c0 -93 38 -134 86 -134s87 41 87 134c0 95 -36 136 -87 136c-48 0 -86 -41 -86 -136zM20 264c0 188 134 280 299 280s299 -88 299 -280c0 -186 -134 -282 -299 -282s-299 97 -299 282zM208 601c-121 0 -163 89 -163 188h132c0 -27 18 -52 47 -52
c65 0 97 61 199 61c121 0 163 -89 163 -188h-132c0 27 -18 52 -47 52c-65 0 -97 -61 -199 -61z" />
    <glyph glyph-name="odieresis" unicode="&#xf6;" horiz-adv-x="638" 
d="M231 264c0 -93 38 -134 86 -134s87 41 87 134c0 95 -36 136 -87 136c-48 0 -86 -41 -86 -136zM20 264c0 188 134 280 299 280s299 -88 299 -280c0 -186 -134 -282 -299 -282s-299 97 -299 282zM100 691c0 51 40 92 91 92s92 -41 92 -92s-41 -91 -92 -91s-91 40 -91 91z
M350 691c0 51 40 92 91 92s92 -41 92 -92s-41 -91 -92 -91s-91 40 -91 91z" />
    <glyph glyph-name="uacute" unicode="&#xfa;" horiz-adv-x="710" 
d="M685 165v-161s-41 -21 -115 -21c-79 0 -119 36 -137 79c-28 -33 -84 -79 -173 -79c-112 0 -181 73 -181 192v190h-54v165h268v-308c0 -36 26 -55 56 -55c27 0 50 13 69 27v171h-54v165h267v-329c0 -40 26 -42 54 -36zM217 679l194 154l102 -151l-134 -67
c-87 -44 -158 3 -162 64z" />
    <glyph glyph-name="ucircumflex" unicode="&#xfb;" horiz-adv-x="710" 
d="M685 165v-161s-41 -21 -115 -21c-79 0 -119 36 -137 79c-28 -33 -84 -79 -173 -79c-112 0 -181 73 -181 192v190h-54v165h268v-308c0 -36 26 -55 56 -55c27 0 50 13 69 27v171h-54v165h267v-329c0 -40 26 -42 54 -36zM140 646l120 164c30 41 102 42 133 0l121 -164
c-18 -58 -97 -57 -126 -26l-61 66l-61 -66c-29 -31 -108 -32 -126 26z" />
    <glyph glyph-name="udieresis" unicode="&#xfc;" horiz-adv-x="710" 
d="M685 165c-28 -6 -54 -4 -54 36v329h-267v-165h54v-171c-19 -14 -42 -27 -69 -27c-30 0 -56 19 -56 55v308h-268v-165h54v-190c0 -119 69 -192 181 -192c89 0 145 46 173 79c18 -43 58 -79 137 -79c74 0 115 21 115 21v161zM112 691c0 51 40 92 91 92s92 -41 92 -92
s-41 -91 -92 -91s-91 40 -91 91zM362 691c0 51 40 92 91 92s92 -41 92 -92s-41 -91 -92 -91s-91 40 -91 91z" />
    <glyph glyph-name="ydieresis" unicode="&#xff;" horiz-adv-x="567" 
d="M334 365l-50 -123l-48 123h34v165h-269v-165h26l147 -375h40c-19 -48 -45 -92 -174 -62l-20 -146s53 -17 137 -17c131 0 182 91 233 221l48 119l105 260h24v165h-269v-165h36zM68 691c0 51 40 92 91 92s92 -41 92 -92s-41 -91 -92 -91s-91 40 -91 91zM318 691
c0 51 40 92 91 92s92 -41 92 -92s-41 -91 -92 -91s-91 40 -91 91z" />
    <glyph glyph-name="Scaron" unicode="&#x160;" horiz-adv-x="560" 
d="M535 177c0 -108 -68 -195 -249 -195c-153 0 -260 48 -260 48v132h176s9 -54 65 -54c41 0 59 25 59 54c0 98 -296 74 -296 301c0 111 102 192 258 192c129 0 232 -32 232 -32v-145h-171s-3 54 -63 54c-36 0 -52 -24 -52 -54c0 -101 301 -79 301 -301zM466 864l-120 -164
c-30 -41 -102 -42 -133 0l-121 164c18 58 97 57 126 26l61 -66l61 66c29 31 108 32 126 -26z" />
    <glyph glyph-name="colon" unicode=":" horiz-adv-x="257" 
d="M20 98c0 60 48 110 107 110c61 0 110 -50 110 -110c0 -62 -49 -109 -110 -109c-59 0 -107 47 -107 109zM20 435c0 60 48 110 107 110c61 0 110 -50 110 -110c0 -62 -49 -109 -110 -109c-59 0 -107 47 -107 109z" />
    <glyph glyph-name="semicolon" unicode=";" horiz-adv-x="257" 
d="M20 435c0 60 48 110 107 110c61 0 110 -50 110 -110c0 -62 -49 -109 -110 -109c-59 0 -107 47 -107 109zM20 88c0 67 48 113 110 113c65 0 118 -43 118 -116c0 -183 -213 -237 -213 -237l-28 59s75 22 96 82c-39 7 -83 38 -83 99z" />
    <glyph glyph-name="Zcaron" unicode="&#x17d;" horiz-adv-x="527" 
d="M204 474v-54h-170v219h467v-109l-241 -365h53v39h189v-204h-477v107l251 367h-72zM467 864l-120 -164c-30 -41 -102 -42 -133 0l-121 164c18 58 97 57 126 26l61 -66l61 66c29 31 108 32 126 -26z" />
    <glyph glyph-name="six" unicode="6" horiz-adv-x="543" 
d="M349 217c0 81 -34 104 -76 104s-76 -23 -76 -104c0 -76 34 -103 76 -103s76 27 76 103zM530 221c0 -145 -97 -238 -248 -238c-217 0 -274 164 -274 314c0 208 120 360 354 360c116 0 181 -48 181 -48l-36 -124s-60 32 -137 32c-107 0 -174 -57 -183 -146
c73 103 343 67 343 -150z" />
    <glyph glyph-name="nine" unicode="9" horiz-adv-x="543" 
d="M190 309c0 -81 34 -104 76 -104s76 23 76 104c0 76 -34 103 -76 103s-76 -27 -76 -103zM9 305c0 145 97 238 248 238c217 0 274 -162 274 -336c0 -208 -91 -361 -325 -361c-116 0 -181 48 -181 48l36 124s60 -32 137 -32c107 0 156 79 154 169
c-73 -103 -343 -67 -343 150z" />
    <glyph glyph-name="backslash" unicode="\" horiz-adv-x="383" 
d="M417 -55l-111 -42l-322 861l110 42z" />
    <glyph glyph-name="slash" unicode="/" horiz-adv-x="383" 
d="M94 -97l-111 42l323 861l110 -42z" />
    <glyph glyph-name="equal" unicode="=" horiz-adv-x="474" 
d="M460 241v-118h-444v118h444zM460 407v-118h-444v118h444z" />
    <glyph glyph-name="less" unicode="&#x3c;" horiz-adv-x="331" 
d="M340 112l-65 -101l-278 179v143l278 179l65 -101l-232 -150z" />
    <glyph glyph-name="greater" unicode="&#x3e;" horiz-adv-x="331" 
d="M-19 410l65 101l278 -179v-143l-278 -179l-65 101l232 150z" />
    <glyph glyph-name="bar" unicode="|" horiz-adv-x="173" 
d="M141 -252h-118v1038h118v-1038z" />
    <glyph glyph-name="dotaccent" unicode="&#x2d9;" horiz-adv-x="255" 
d="M16 695c0 62 50 114 111 114c64 0 114 -52 114 -114c0 -64 -50 -113 -114 -113c-61 0 -111 49 -111 113z" />
    <glyph glyph-name="quotesingle" unicode="'" horiz-adv-x="104" 
d="M13 583l-11 150c-2 31 23 50 50 50c28 0 53 -23 51 -50l-13 -150c-3 -21 -17 -38 -39 -38c-21 0 -36 17 -38 38z" />
    <glyph glyph-name="quotedbl" unicode="&#x22;" horiz-adv-x="157" 
d="M106 583l-11 150c-2 31 23 50 50 50c28 0 53 -23 51 -50l-13 -150c-3 -21 -17 -38 -39 -38c-21 0 -36 17 -38 38zM-20 583l-11 150c-2 31 23 50 50 50c28 0 53 -23 51 -50l-13 -150c-3 -21 -17 -38 -39 -38c-21 0 -36 17 -38 38z" />
    <glyph glyph-name="exclam" unicode="!" horiz-adv-x="298" 
d="M71 239l-30 417c-6 79 58 127 127 127c71 0 134 -58 129 -127l-31 -417c-4 -53 -43 -96 -99 -96c-53 0 -91 43 -96 96zM44 -16c0 -71 55 -125 123 -125c70 0 126 54 126 125c0 69 -56 126 -126 126c-68 0 -123 -57 -123 -126z" />
    <glyph glyph-name="exclamdown" unicode="&#xa1;" horiz-adv-x="298" 
d="M227 292l30 -417c6 -79 -58 -127 -127 -127c-71 0 -134 58 -129 127l31 417c4 53 43 96 99 96c53 0 91 -43 96 -96zM254 547c0 -69 -55 -126 -123 -126c-70 0 -126 57 -126 126c0 71 56 125 126 125c68 0 123 -54 123 -125z" />
    <glyph glyph-name="Ydieresis" unicode="&#x178;" horiz-adv-x="615" 
d="M147 165v-165h320v165h-53v32h1l157 278h24v165h-271v-165h33l-50 -89l-50 89h31v165h-268v-165h23l157 -278v-32h-54zM89 758c0 51 40 92 91 92s92 -41 92 -92s-41 -91 -92 -91s-91 40 -91 91zM339 758c0 51 40 92 91 92s92 -41 92 -92s-41 -91 -92 -91s-91 40 -91 91z
" />
    <glyph glyph-name="hungarumlaut" unicode="&#x2dd;" horiz-adv-x="351" 
d="M158 667l123 113c22 21 53 14 70 -7c18 -23 16 -56 -7 -71l-137 -95c-19 -10 -40 -10 -54 7c-14 16 -10 39 5 53zM-1 667l123 113c22 21 53 14 70 -7c18 -23 16 -56 -7 -71l-137 -95c-19 -10 -40 -10 -54 7c-14 16 -10 39 5 53z" />
    <glyph glyph-name="numbersign" unicode="#" horiz-adv-x="594" 
d="M624 708l-41 -118h-74l-34 -91h75l-41 -118h-77l-26 -71h-127l26 71h-109l-26 -71h-126l26 71h-70l43 118h70l34 91h-71l43 118h72l27 73h126l-27 -73h109l27 73h126l-27 -73h72zM273 590l-34 -91h109l34 91h-109z" />
    <glyph glyph-name="asterisk" unicode="*" horiz-adv-x="478" 
d="M271 714c0 41 27 67 67 67c37 0 68 -26 68 -68c0 -90 -77 -139 -129 -160c18 -17 41 -30 65 -23c7 37 30 55 67 55c38 0 66 -26 66 -68c0 -47 -41 -70 -93 -70c-66 0 -119 44 -149 78c-11 -23 -16 -49 -1 -72c53 10 76 -24 76 -63c0 -41 -27 -64 -68 -64
c-57 0 -87 70 -87 116c0 36 17 73 33 103c-20 3 -46 1 -60 -7c4 -10 9 -21 9 -33c0 -34 -27 -62 -67 -62c-44 0 -68 33 -68 69c0 93 153 122 210 95c-3 22 -13 47 -37 57c0 0 -15 -22 -47 -22c-38 0 -66 35 -66 67c0 38 30 70 69 70c96 0 134 -124 135 -176
c20 13 39 30 41 56c-18 9 -34 26 -34 55z" />
    <glyph glyph-name="question" unicode="?" horiz-adv-x="487" 
d="M132 233v100c0 140 173 138 173 256c0 37 -21 58 -70 58c-60 0 -72 -44 -72 -44h-145v132s101 48 217 48c152 0 258 -47 258 -184c0 -186 -192 -187 -192 -296v-70h-169zM113 88c0 -60 46 -105 103 -105c59 0 106 45 106 105c0 58 -47 106 -106 106
c-57 0 -103 -48 -103 -106z" />
    <glyph glyph-name="questiondown" unicode="&#xbf;" horiz-adv-x="487" 
d="M378 297v-100c0 -140 -173 -138 -173 -256c0 -37 21 -58 70 -58c60 0 72 44 72 44h145v-132s-101 -48 -217 -48c-152 0 -258 47 -258 184c0 186 192 187 192 296v70h169zM397 441c0 -58 -46 -106 -103 -106c-59 0 -106 48 -106 106c0 60 47 105 106 105
c57 0 103 -45 103 -105z" />
    <glyph glyph-name="guillemotleft" unicode="&#xab;" horiz-adv-x="502" 
d="M236 179v-143l-239 154v143l239 154v-143l-128 -83zM261 176v171l218 140v-143l-128 -83l128 -82v-143z" />
    <glyph glyph-name="guillemotright" unicode="&#xbb;" horiz-adv-x="502" 
d="M264 343v143l239 -154v-143l-239 -154v143l128 83zM239 346v-171l-218 -140v143l128 83l-128 82v143z" />
    <glyph glyph-name="guilsinglright" unicode="&#x203a;" horiz-adv-x="252" 
d="M16 343v143l239 -154v-143l-239 -154v143l128 83z" />
    <glyph glyph-name="scaron" unicode="&#x161;" horiz-adv-x="590" 
d="M550 156c0 -108 -105 -174 -249 -174c-153 0 -260 48 -260 48v132h176s9 -54 72 -54c34 0 57 21 57 44c0 99 -306 -5 -306 222c0 111 118 171 235 171c108 0 260 -32 260 -32v-145h-176s-3 54 -63 54c-34 0 -57 -21 -57 -39c0 -95 311 -5 311 -227zM488 774l-120 -164
c-30 -41 -102 -42 -133 0l-121 164c18 58 97 57 126 26l61 -66l61 66c29 31 108 32 126 -26z" />
    <glyph glyph-name="macron" unicode="&#xaf;" horiz-adv-x="352" 
d="M331 769v-118h-315v118h315z" />
    <glyph glyph-name="brokenbar" unicode="&#xa6;" horiz-adv-x="173" 
d="M141 362h-118v424h118v-424zM23 221h118v-473h-118v473z" />
    <glyph glyph-name="guilsinglleft" unicode="&#x2039;" horiz-adv-x="252" 
d="M239 177v-143l-239 154v143l239 154v-143l-128 -83z" />
    <glyph glyph-name="periodcentered" unicode="&#xb7;" horiz-adv-x="257" 
d="M20 290c0 60 48 110 107 110c61 0 110 -50 110 -110c0 -62 -49 -109 -110 -109c-59 0 -107 47 -107 109z" />
    <glyph glyph-name="bullet" unicode="&#x2022;" horiz-adv-x="384" 
d="M21 269c0 96 77 176 171 176c98 0 176 -80 176 -176c0 -99 -78 -175 -176 -175c-94 0 -171 76 -171 175z" />
    <glyph glyph-name="dollar" unicode="$" horiz-adv-x="590" 
d="M550 156c0 -65 -38 -115 -100 -145v-100h-118v72c-10 0 -21 -1 -31 -1c-11 0 -22 1 -32 1v-72h-118v86c-67 14 -110 33 -110 33v132h176s9 -54 72 -54c34 0 57 21 57 44c0 99 -306 -5 -306 222c0 70 47 120 111 147v87h118v-63h6c18 0 37 -1 57 -3v66h118v-80
c49 -7 85 -15 85 -15v-145h-176s-3 54 -63 54c-34 0 -57 -21 -57 -39c0 -95 311 -5 311 -227z" />
    <glyph glyph-name="quoteright" unicode="&#x2019;" horiz-adv-x="175" 
d="M8 701c0 48 35 81 79 81c47 0 85 -31 85 -83c0 -131 -153 -170 -153 -170l-20 42s54 16 69 59c-28 5 -60 27 -60 71z" />
    <glyph glyph-name="quoteleft" unicode="&#x2018;" horiz-adv-x="175" 
d="M162 609c0 -48 -35 -81 -79 -81c-47 0 -85 31 -85 83c0 131 153 170 153 170l20 -42s-54 -16 -69 -59c28 -5 60 -27 60 -71z" />
    <glyph glyph-name="quotedblleft" unicode="&#x201c;" horiz-adv-x="262" 
d="M257 609c0 -48 -35 -81 -79 -81c-47 0 -85 31 -85 83c0 131 153 170 153 170l20 -42s-54 -16 -69 -59c28 -5 60 -27 60 -71zM69 609c0 -48 -35 -81 -79 -81c-47 0 -85 31 -85 83c0 131 153 170 153 170l20 -42s-54 -16 -69 -59c28 -5 60 -27 60 -71z" />
    <glyph glyph-name="quotedblright" unicode="&#x201d;" horiz-adv-x="310" 
d="M208 701c0 48 35 81 79 81c47 0 85 -31 85 -83c0 -131 -153 -170 -153 -170l-20 42s54 16 69 59c-28 5 -60 27 -60 71zM8 701c0 48 35 81 79 81c47 0 85 -31 85 -83c0 -131 -153 -170 -153 -170l-20 42s54 16 69 59c-28 5 -60 27 -60 71z" />
    <glyph glyph-name="asciicircum" unicode="^" horiz-adv-x="331" 
d="M90 530h-138l145 254h143l145 -254h-139l-78 135z" />
    <glyph glyph-name="ring" unicode="&#x2da;" horiz-adv-x="240" 
d="M18 679c0 57 47 104 104 104s104 -47 104 -104s-47 -104 -104 -104s-104 47 -104 104zM74 679c0 -26 22 -48 48 -48s48 22 48 48s-22 48 -48 48s-48 -22 -48 -48z" />
    <glyph glyph-name="Eth" unicode="&#xd0;" horiz-adv-x="594" 
d="M33 475v165h266c187 0 339 -133 339 -320s-152 -320 -339 -320h-267v165h54v92h-53v118h53v100h-53zM360 375v-118h-61v-92c57 6 126 50 126 155s-64 149 -126 154v-99h61z" />
    <glyph glyph-name="braceright" unicode="}" horiz-adv-x="312" 
d="M330 270c-17 -24 -34 -56 -34 -98v-182c0 -98 -81 -200 -228 -200h-54v165h34c22 0 35 12 35 35v202c0 84 77 119 77 119s-77 35 -77 119v202c0 23 -13 35 -35 35h-34v165h54c147 0 228 -102 228 -200v-182c0 -42 17 -76 35 -99c20 -25 20 -52 -1 -81z" />
    <glyph glyph-name="braceleft" unicode="{" horiz-adv-x="317" 
d="M-6 352c17 24 34 56 34 98v182c0 98 81 200 228 200h54v-165h-34c-22 0 -35 -12 -35 -35v-202c0 -84 -77 -119 -77 -119s77 -35 77 -119v-202c0 -23 13 -35 35 -35h34v-165h-54c-147 0 -228 102 -228 200v182c0 42 -17 76 -35 99c-20 25 -20 52 1 81z" />
    <glyph glyph-name="at" unicode="@" horiz-adv-x="858" 
d="M463 117v163c-31 14 -106 35 -106 -80c0 -118 75 -96 106 -83zM213 200c0 139 99 189 199 189s196 -38 196 -38v-199c0 -23 14 -43 40 -43c49 0 72 65 72 116c0 159 -134 230 -289 230c-158 0 -288 -106 -288 -265c0 -154 107 -274 288 -274l-1 -125
c-282 0 -429 165 -429 401s193 394 429 394s430 -123 430 -359c0 -259 -282 -296 -368 -176c-121 -78 -279 -51 -279 149z" />
    <glyph glyph-name="percent" unicode="%" horiz-adv-x="792" 
d="M215 -89l-69 45l436 652l68 -43zM17 372c0 95 78 173 173 173s175 -78 175 -173s-80 -175 -175 -175s-173 80 -173 175zM111 372c0 -45 36 -81 79 -81c45 0 81 36 81 81c0 43 -36 79 -81 79c-43 0 -79 -36 -79 -79zM436 158c0 95 78 173 173 173s175 -78 175 -173
s-80 -175 -175 -175s-173 80 -173 175zM530 158c0 -45 36 -81 79 -81c45 0 81 36 81 81c0 43 -36 79 -81 79c-43 0 -79 -36 -79 -79z" />
    <glyph glyph-name="fraction" unicode="&#x2044;" horiz-adv-x="450" 
d="M39 -89l-69 45l436 652l68 -43z" />
    <glyph glyph-name="perthousand" unicode="&#x2030;" horiz-adv-x="1179" 
d="M215 -89l-69 45l436 652l68 -43zM17 372c0 95 78 173 173 173s175 -78 175 -173s-80 -175 -175 -175s-173 80 -173 175zM111 372c0 -45 36 -81 79 -81c45 0 81 36 81 81c0 43 -36 79 -81 79c-43 0 -79 -36 -79 -79zM436 158c0 95 78 173 173 173s175 -78 175 -173
s-80 -175 -175 -175s-173 80 -173 175zM530 158c0 -45 36 -81 79 -81c45 0 81 36 81 81c0 43 -36 79 -81 79c-43 0 -79 -36 -79 -79zM815 158c0 95 78 173 173 173s175 -78 175 -173s-80 -175 -175 -175s-173 80 -173 175zM909 158c0 -45 36 -81 79 -81c45 0 81 36 81 81
c0 43 -36 79 -81 79c-43 0 -79 -36 -79 -79z" />
    <glyph glyph-name="germandbls" unicode="&#xdf;" horiz-adv-x="929" 
d="M25 0v165h54v200h-54v165h53v49c0 129 108 204 321 204c142 0 304 -35 304 -178c0 -131 -102 -145 -102 -222c0 -95 311 -5 311 -227c0 -108 -105 -174 -249 -174c-153 0 -260 48 -260 48v132h176s9 -54 72 -54c34 0 57 21 57 44c0 99 -306 -5 -306 222
c0 96 102 131 102 206c0 37 -31 74 -104 74c-80 0 -108 -37 -108 -74c0 -36 -1 -70 -2 -103l2 1v-313h72v-165h-339z" />
    <glyph glyph-name="florin" unicode="&#x192;" horiz-adv-x="339" 
d="M25 365v165h53v49c0 129 101 204 256 204c148 0 221 -71 221 -71v-108h-162s-10 36 -47 36s-54 -23 -54 -60c0 -17 0 -34 -1 -50h73v-165h-72v-414h1c0 -129 -101 -204 -256 -204c-148 0 -214 71 -214 71v108h155s10 -36 47 -36s54 23 54 60v415h-54z" />
    <glyph glyph-name="quotesinglbase" unicode="&#x201a;" horiz-adv-x="175" 
d="M8 56c0 48 35 81 79 81c47 0 85 -31 85 -83c0 -131 -153 -170 -153 -170l-20 42s54 16 69 59c-28 5 -60 27 -60 71z" />
    <glyph glyph-name="quotedblbase" unicode="&#x201e;" horiz-adv-x="288" 
d="M154 56c0 48 35 81 79 81c47 0 85 -31 85 -83c0 -131 -153 -170 -153 -170l-20 42s54 16 69 59c-28 5 -60 27 -60 71zM-39 56c0 48 35 81 79 81c47 0 85 -31 85 -83c0 -131 -153 -170 -153 -170l-20 42s54 16 69 59c-28 5 -60 27 -60 71z" />
    <glyph glyph-name="ellipsis" unicode="&#x2026;" horiz-adv-x="760" 
d="M20 98c0 60 48 110 107 110c61 0 110 -50 110 -110c0 -62 -49 -109 -110 -109c-59 0 -107 47 -107 109zM525 98c0 60 48 110 107 110c61 0 110 -50 110 -110c0 -62 -49 -109 -110 -109c-59 0 -107 47 -107 109zM273 98c0 60 48 110 107 110c61 0 110 -50 110 -110
c0 -62 -49 -109 -110 -109c-59 0 -107 47 -107 109z" />
    <glyph glyph-name="oe" unicode="&#x153;" horiz-adv-x="1083" 
d="M20 264c0 188 134 280 299 280c89 0 169 -26 224 -80c57 57 141 81 224 81c237 0 315 -144 300 -317h-383c10 -76 54 -103 110 -103c77 0 104 60 104 60h162v-132s-99 -71 -293 -71c-83 0 -166 25 -224 83c-55 -55 -135 -83 -224 -83c-165 0 -299 97 -299 282zM231 264
c0 -93 38 -134 86 -134s87 41 87 134c0 95 -36 136 -87 136c-48 0 -86 -41 -86 -136zM772 401c-41 0 -81 -27 -89 -108h170c0 76 -27 108 -81 108z" />
    <glyph glyph-name="ae" unicode="&#xe6;" horiz-adv-x="994" 
d="M349 284v70c0 41 -31 54 -64 54c-51 0 -58 -41 -58 -41h-171v132s89 46 211 46c86 0 153 -17 202 -48c53 33 118 48 183 48c237 0 315 -144 300 -317h-383c10 -76 54 -103 110 -103c77 0 104 60 104 60h165l-3 -132c-12 0 -117 -71 -293 -71c-90 0 -181 30 -238 99
c-39 -38 -116 -96 -219 -96c-92 0 -175 50 -175 153c0 146 182 126 329 146zM568 293h170c0 76 -27 108 -81 108c-41 0 -81 -27 -89 -108zM224 157c0 -44 86 -63 149 -4c-7 19 -12 39 -15 62c-100 -15 -134 -10 -134 -58z" />
    <glyph glyph-name="sterling" unicode="&#xa3;" horiz-adv-x="581" 
d="M78 579c0 129 101 204 256 204c148 0 221 -71 221 -71v-108h-162s-10 36 -47 36s-54 -23 -54 -60v-50h72v-165h-72v-200h104v88h165v-253h-536v165h54v200h-54v165h53v49z" />
    <glyph glyph-name="yen" unicode="&#xa5;" horiz-adv-x="615" 
d="M596 362v-62h-124l-15 -26h139v-62h-174l-8 -15h-1v-32h53v-165h-320v165h54v32l-9 15h-171v62h136l-14 26h-122v62h87l-64 113h-23v165h268v-165h-31l50 -89l50 89h-33v165h271v-165h-24l-64 -113h89z" />
    <glyph glyph-name="Euro" unicode="&#x20ac;" horiz-adv-x="607" 
d="M412 388v-62h-169v-26h169v-62h-165c11 -84 41 -112 90 -112c53 0 76 59 76 59h166v-132s-75 -71 -269 -71c-141 0 -253 61 -279 256h-64v62h59v26h-59v62h62c19 189 134 267 281 267c194 0 269 -71 269 -71v-132h-166s-23 59 -76 59c-52 0 -82 -46 -91 -123h166z" />
    <glyph glyph-name="OE" unicode="&#x152;" horiz-adv-x="948" 
d="M756 271h-132v-106h132v88h165v-253h-479c-37 -12 -75 -17 -111 -17c-151 0 -320 90 -320 333s169 339 320 339c33 0 68 -5 102 -15h488v-234h-165v69h-132v-87h132v-117zM422 316c0 134 -43 190 -91 190s-91 -56 -91 -190s43 -184 91 -184s91 50 91 184z" />
    <glyph glyph-name="ordmasculine" unicode="&#xba;" horiz-adv-x="289" 
d="M17 655c0 70 58 128 128 128s129 -58 129 -128s-59 -129 -129 -129s-128 59 -128 129zM103 655c0 -24 19 -43 42 -43c24 0 43 19 43 43c0 23 -19 42 -43 42c-23 0 -42 -19 -42 -42z" />
    <glyph glyph-name="trademark" unicode="&#x2122;" horiz-adv-x="864" 
d="M348 679v83h212v-83h-17l54 -147l54 147h-17v83h213v-83h-28v-157h27v-83h-161v83h27v124l-78 -213h-73l-79 213v-124h27v-83h-161v83h27v157h-27zM4 644h83v35h27v-157h-27v-83h162v83h-27v157h27v-35h83v118h-328v-118z" />
    <glyph glyph-name="onesuperior" unicode="&#xb9;" horiz-adv-x="154" 
d="M23 609v73h-25v56c60 -2 65 46 65 46h50v-175h23v-79h-138v79h25z" />
    <glyph glyph-name="registered" unicode="&#xae;" horiz-adv-x="291" 
d="M153 596v-66h-129v66h22v123h-22v66h124c35 0 108 -8 108 -66c0 -51 -73 -56 -67 -56c97 3 42 -75 89 -67v-66c-96 -13 -113 47 -113 88c0 10 -7 20 -22 20h-13v-42h23zM150 719h-20v-34h20c14 0 22 5 22 17c0 9 -8 17 -22 17z" />
    <glyph glyph-name="twosuperior" unicode="&#xb2;" horiz-adv-x="240" 
d="M23 530v54s115 43 115 107c0 18 -12 28 -29 28c-37 0 -36 -41 -9 -45l-11 -42s-84 -5 -84 70c0 47 39 81 113 81c60 0 101 -34 101 -78c0 -73 -105 -106 -123 -111c11 2 54 12 121 12v-76h-194z" />
    <glyph glyph-name="threesuperior" unicode="&#xb3;" horiz-adv-x="239" 
d="M91 640v31h8c18 0 33 8 33 29c0 17 -14 27 -31 27c-15 0 -28 -9 -30 -24h-68v57s37 24 98 24c70 0 116 -26 116 -70c0 -50 -54 -56 -60 -57c7 0 64 -6 64 -57c0 -49 -40 -70 -120 -70c-61 0 -102 25 -102 25v57h72c2 -16 19 -24 34 -24s29 9 29 26c0 18 -15 26 -31 26
h-12z" />
    <glyph glyph-name="onequarter" unicode="&#xbc;" horiz-adv-x="929" 
d="M848 -120h-161v122h-240v138l256 305h145v-305h51v-138h-51v-122zM264 103h-239v138h42v128h-43v97c106 -4 114 80 114 80h86v-305h40v-138zM247 -89l-69 45l436 652l68 -43zM577 126h110v139z" />
    <glyph glyph-name="copyright" unicode="&#xa9;" horiz-adv-x="277" 
d="M20 664c0 79 59 119 126 119s107 -29 107 -29v-64h-70s-4 28 -34 28c-24 0 -38 -18 -38 -49c0 -35 25 -54 60 -54c37 0 72 23 72 23l17 -61s-37 -32 -101 -32c-91 0 -139 41 -139 119z" />
    <glyph glyph-name="ordfeminine" unicode="&#xaa;" horiz-adv-x="316" 
d="M120 530c-56 0 -107 37 -107 121c0 99 67 134 148 134c63 0 117 -25 117 -25v-131c0 -18 11 -19 24 -16v-73s-19 -10 -52 -10c-30 0 -47 12 -57 27c-23 -18 -49 -27 -73 -27zM181 603v111s-13 6 -28 6c-20 0 -43 -12 -43 -61c0 -50 19 -62 40 -62c10 0 22 3 31 6z" />
    <glyph glyph-name="onehalf" unicode="&#xbd;" horiz-adv-x="977" 
d="M596 1v98s208 77 208 191c0 33 -22 52 -52 52c-67 0 -66 -75 -16 -81l-20 -77s-153 -9 -153 126c0 86 71 146 204 146c109 0 182 -61 182 -140c0 -129 -181 -188 -219 -199c22 5 100 21 216 21v-137h-350zM261 103h-239v138h42v128h-43v97c106 -4 114 80 114 80h86v-305
h40v-138zM244 -89l-69 45l436 652l68 -43z" />
    <glyph glyph-name="threequarters" unicode="&#xbe;" horiz-adv-x="1023" 
d="M951 -121h-161v122h-240v138l256 305h145v-305h51v-138h-51v-122zM191 291v58h15c33 0 62 16 62 54c0 31 -26 50 -59 50c-28 0 -52 -16 -55 -45h-126v106s68 44 181 44c130 0 214 -48 214 -130c0 -89 -90 -103 -107 -105c18 -2 115 -14 115 -106
c0 -91 -73 -128 -222 -128c-113 0 -188 46 -188 46v105h133c3 -29 35 -45 63 -45s54 17 54 49c0 33 -27 47 -57 47h-23zM382 -89l-69 45l436 652l68 -43zM680 125h110v139z" />
    <glyph glyph-name="mu" unicode="&#xb5;" horiz-adv-x="710" 
d="M25 -234v165h54v434h-54v165h268v-323c2 -26 21 -40 50 -40s57 18 73 30v168h-55v165h270v-365h54v-165h-269v53c-28 -27 -68 -53 -123 -65v-222h-268z" />
    <glyph glyph-name="multiply" unicode="&#xd7;" horiz-adv-x="474" 
d="M437 133l-84 -84l-115 115l-115 -115l-84 84l115 115l-115 115l84 84l115 -115l115 115l84 -84l-115 -115z" />
    <glyph glyph-name="divide" unicode="&#xf7;" horiz-adv-x="474" 
d="M163 454c0 48 39 88 87 88c50 0 88 -40 88 -88c0 -50 -38 -88 -88 -88c-48 0 -87 38 -87 88zM163 74c0 48 39 88 87 88c50 0 88 -40 88 -88c0 -50 -38 -88 -88 -88c-48 0 -87 38 -87 88zM460 324v-118h-444v118h444z" />
    <glyph glyph-name="thorn" unicode="&#xfe;" horiz-adv-x="686" 
d="M30 -234v162h55v670h-55v165h267v-267c44 31 98 49 151 49c112 0 218 -80 218 -281s-107 -281 -219 -281c-53 0 -106 17 -150 48v-103h57v-162h-324zM453 264c0 171 -111 139 -156 118v-238c45 -21 156 -53 156 120z" />
    <glyph glyph-name="Thorn" unicode="&#xde;" horiz-adv-x="627" 
d="M25 0v165h55v433h-55v165h267v-123h102c118 0 233 -66 233 -215c0 -143 -108 -203 -213 -203h-122v-57h55v-165h-322zM364 475h-72v-99h72c28 0 50 22 50 49c0 28 -22 50 -50 50z" />
    <glyph glyph-name="parenright" unicode=")" horiz-adv-x="360" 
d="M14 -210v165c100 0 146 127 146 356s-46 356 -146 356v165c173 0 332 -146 332 -521c0 -377 -159 -521 -332 -521z" />
    <glyph glyph-name="parenleft" unicode="(" horiz-adv-x="360" 
d="M346 832v-165c-100 0 -146 -127 -146 -356s46 -356 146 -356v-165c-173 0 -332 146 -332 521c0 377 159 521 332 521z" />
    <glyph glyph-name="ccedilla" unicode="&#xe7;" horiz-adv-x="609" 
d="M20 264c0 186 139 281 296 281c158 0 253 -67 253 -67v-152h-166s-8 67 -79 67c-57 0 -91 -44 -91 -116c0 -84 60 -128 141 -128c88 0 170 53 170 53l42 -143s-72 -61 -196 -74v-71s-129 13 -129 -44c0 -52 114 -56 170 -31l19 -65c-103 -49 -334 -36 -334 80
c0 108 159 108 159 108v25c-167 20 -255 116 -255 277z" />
    <glyph glyph-name="cedilla" unicode="&#xb8;" horiz-adv-x="364" 
d="M292 58l-1 -144s-129 13 -129 -44c0 -29 62 -47 91 -47c38 0 79 16 79 16l19 -59s-55 -32 -127 -32c-114 0 -207 31 -207 106c0 108 159 108 159 108l1 102z" />
    <glyph glyph-name="oslash" unicode="&#xf8;" horiz-adv-x="638" 
d="M20 264c0 188 134 280 299 280c15 0 31 -1 46 -3l62 167l110 -42l-59 -156c84 -42 140 -122 140 -246c0 -186 -134 -282 -299 -282c-13 0 -25 1 -37 2l-67 -179l-111 42l63 168c-88 42 -147 126 -147 249zM231 264c0 -93 38 -134 86 -134s87 41 87 134
c0 95 -36 136 -87 136c-48 0 -86 -41 -86 -136z" />
    <glyph glyph-name="cent" unicode="&#xa2;" horiz-adv-x="609" 
d="M20 264c0 186 133 280 280 280c23 0 44 -1 64 -3l63 167l110 -42l-56 -148c59 -20 88 -45 88 -45v-132h-166s-23 59 -76 59c-63 0 -94 -48 -94 -136c0 -92 30 -138 94 -138c53 0 76 59 76 59h166v-132s-75 -71 -269 -71c-6 0 -13 0 -19 1l-66 -178l-111 42l62 165
c-85 42 -146 128 -146 252z" />
    <glyph glyph-name="Lslash" unicode="&#x141;" horiz-adv-x="581" 
d="M79 204l-58 -14v178l58 14v93h-54v165h321v-165h-54v-39l75 19v-178l-75 -19v-93h104v88h165v-253h-536v165h54v39z" />
    <glyph glyph-name="lslash" unicode="&#x142;" 
d="M25 0v165h54v82l-64 -28v178l64 28v174h-54v165h267v-247l69 30v-178l-69 -30v-174h54v-165h-321z" />
    <glyph glyph-name="eth" unicode="&#xf0;" horiz-adv-x="543" 
d="M215 744l100 -62l-19 -31c143 -22 235 -123 235 -320c0 -227 -80 -347 -280 -347c-132 0 -242 84 -242 206c0 225 244 272 332 181c11 72 -40 158 -101 158c-7 0 -14 -1 -20 -2l-73 -119l-100 62l19 31h-39v106s54 28 129 41zM342 220c0 76 -34 103 -76 103
s-76 -27 -76 -103c0 -81 34 -104 76 -104s76 23 76 104z" />
    <glyph glyph-name="AE" unicode="&#xc6;" horiz-adv-x="912" 
d="M330 0v165h54v40h-111l-25 -41h33v-165h-271v165h24l297 476h563v-234h-165v69h-132v-87h132v-117h-132v-106h132v88h165v-253h-564zM315 272h69v110z" />
    <glyph glyph-name="ampersand" unicode="&#x26;" horiz-adv-x="724" 
d="M381 370v-102c-98 0 -140 -25 -140 -86c0 -93 144 -93 208 -62v148h-49v102h306v-102h-55v-208s-91 -77 -315 -77c-176 0 -311 55 -311 183c0 134 162 151 215 154c-46 2 -205 21 -205 154c0 128 105 183 262 183c158 0 271 -48 271 -48v-132h-168
c-8 68 -149 81 -149 -19c0 -56 35 -88 130 -88z" />
    <glyph glyph-name="logicalnot" unicode="&#xac;" horiz-adv-x="474" 
d="M460 300v-301h-134v119h-310v182h444z" />
    <glyph glyph-name="breve" unicode="&#x2d8;" horiz-adv-x="386" 
d="M292 765l81 -1c-3 -97 -84 -163 -182 -163s-179 66 -182 163h82s10 -77 100 -77c81 0 101 78 101 78z" />
    <glyph glyph-name="ogonek" unicode="&#x2db;" horiz-adv-x="364" 
d="M182 40l35 -19s-55 -47 -55 -120c0 -63 62 -78 91 -78c38 0 79 16 79 16l19 -59s-55 -32 -127 -32c-114 0 -207 26 -207 137c0 128 165 155 165 155z" />
    <glyph glyph-name="section" unicode="&#xa7;" horiz-adv-x="529" 
d="M29 479c0 103 95 179 240 179c120 0 216 -30 216 -30v-135h-159s-3 50 -59 50c-33 0 -48 -22 -48 -50c0 -94 280 -74 280 -280c0 -58 -20 -109 -70 -142c40 -31 70 -74 70 -141c0 -101 -63 -182 -232 -182c-142 0 -242 45 -242 45v123h164s8 -51 60 -51c39 0 55 24 55 51
c0 91 -275 68 -275 280c0 55 27 102 75 134c-43 31 -75 76 -75 149zM304 199c0 26 -23 43 -55 58c-21 -6 -30 -25 -30 -47c0 -26 21 -44 52 -59c23 7 33 27 33 48z" />
    <glyph glyph-name="daggerdbl" unicode="&#x2021;" horiz-adv-x="369" 
d="M-61 -39v165h140v281h-140v165h140v192h213v-192h138v-165h-138v-281h138v-165h-138v-194h-213v194h-140z" />
    <glyph glyph-name="dagger" unicode="&#x2020;" horiz-adv-x="369" 
d="M-61 407v165h140v192h213v-192h138v-165h-138v-640h-213v640h-140z" />
    <glyph glyph-name="n" unicode="n" horiz-adv-x="720" 
d="M427 165v150c0 30 -20 48 -47 48c-35 0 -72 -23 -88 -34v-164h57v-165h-324v165h55v200h-55v165h267v-61c39 36 103 76 193 76c113 0 156 -101 156 -180v-200h54v-165h-324v165h56z" />
    <glyph glyph-name="r" unicode="r" horiz-adv-x="487" 
d="M477 337l-33 4c-115 13 -152 -35 -152 -84v-92h67v-165h-334v165h55v200h-55v165h267v-72c30 46 78 87 153 87h32v-208z" />
    <glyph glyph-name="a" unicode="a" horiz-adv-x="676" 
d="M255 -17c-122 0 -235 80 -235 266c0 219 148 296 326 296c138 0 256 -56 256 -56v-288c0 -40 26 -42 54 -36v-161s-41 -21 -115 -21c-66 0 -104 25 -126 58c-49 -39 -106 -58 -160 -58zM389 144v243s-28 14 -61 14c-44 0 -95 -27 -95 -135c0 -109 42 -137 88 -137
c23 0 48 7 68 15z" />
    <glyph glyph-name="Ccedilla" unicode="&#xc7;" horiz-adv-x="607" 
d="M26 329c0 233 145 328 310 328c160 0 243 -71 243 -71v-154h-166s-11 60 -76 60c-55 0 -94 -53 -94 -160c0 -138 71 -182 148 -182c84 0 167 35 167 35l30 -153c-48 -21 -111 -38 -178 -45v-73s-129 13 -129 -44c0 -29 62 -47 91 -47c38 0 79 16 79 16l19 -59
s-55 -32 -127 -32c-114 0 -207 31 -207 106c0 108 159 108 159 108v25c-142 17 -269 106 -269 342z" />
    <glyph glyph-name="c" unicode="c" horiz-adv-x="573" 
d="M20 264c0 175 106 281 263 281c158 0 253 -67 253 -67v-152h-166s-5 67 -65 67c-49 0 -72 -44 -72 -116c0 -84 58 -128 119 -128c81 0 159 46 159 46l42 -143s-88 -69 -239 -69c-171 0 -294 98 -294 281z" />
    <glyph glyph-name="e" unicode="e" horiz-adv-x="613" 
d="M374 150c95 0 180 55 180 55l37 -146s-84 -77 -256 -77c-181 0 -315 81 -315 282c0 206 135 281 283 281c216 0 289 -107 289 -257c0 -15 -1 -30 -2 -45h-353c14 -72 70 -93 137 -93zM235 308h141c0 70 -28 93 -68 93s-68 -22 -73 -93z" />
    <glyph glyph-name="space" unicode=" " horiz-adv-x="250" 
 />
    </font>
</defs>
</svg>
